<?xml version="1.0" encoding="utf-8"?>
<!-- Generator: Adobe Illustrator 17.0.0, SVG Export Plug-In . SVG Version: 6.00 Build 0)  -->
<!DOCTYPE svg PUBLIC "-//W3C//DTD SVG 1.1//EN" "http://www.w3.org/Graphics/SVG/1.1/DTD/svg11.dtd">
<svg version="1.1" id="Слой_1" xmlns="http://www.w3.org/2000/svg" xmlns:xlink="http://www.w3.org/1999/xlink" x="0px" y="0px"
	 width="100px" height="42.146px" viewBox="0 0 100 42.146" enable-background="new 0 0 100 42.146" xml:space="preserve">
<g>
	<polygon fill-rule="evenodd" clip-rule="evenodd" fill="#0C0E0F" points="72.122,5.235 77.211,5.235 77.211,35.056 72.122,35.056 
		72.122,5.235 	"/>
	<path fill="#0C0E0F" d="M42.671,21.073c0-2.593-0.497-5.064-1.364-7.359c-0.23,7.55-7.998,13.394-12.559,17.262h11.416
		C41.76,28.023,42.671,24.654,42.671,21.073L42.671,21.073z M34.418,4.452C30.803,1.671,26.271,0,21.335,0C9.552,0,0,9.435,0,21.073
		c0,11.638,9.553,21.073,21.335,21.073c5.397,0,10.31-1.995,14.068-5.257H19.955l-0.047-4.481
		c9.308-7.991,15.013-13.395,15.013-18.615c0-1.94-0.749-4.388-4.116-4.388c-2.666,0-5.238,1.525-4.77,7.898H20.61
		c-1.356-7.39,2.712-13.257,10.476-13.257C32.288,4.046,33.402,4.187,34.418,4.452L34.418,4.452z"/>
	<path fill="#0C0E0F" d="M99.997,27.218c0.216-11.673-13.328-7.796-13.199-14.315c0.044-2.3,1.553-3.791,4.012-3.791
		c2.632,0,4.184,1.534,4.14,5.538h4.961c0.13-3.621-0.733-9.798-8.928-9.798c-5.091,0-9.274,2.472-9.36,7.968
		c-0.216,11.203,13.414,7.539,13.199,14.313c-0.086,2.769-2.114,4.005-4.4,4.005c-2.673,0-4.831-1.534-4.399-6.134h-5.003
		c-0.561,6.092,2.156,10.438,9.36,10.438C96.461,35.441,99.911,32.117,99.997,27.218L99.997,27.218z"/>
	<path fill="#0C0E0F" d="M62.46,14.565h5.047c0.172-3.791-1.122-9.798-9.446-9.798c-6.126,0-10.569,3.621-10.569,11.161
		c0,1.022,0.042,6.305,0.042,9.587c0,8.179,5.739,9.968,10.569,9.968c2.891,0,7.074-0.64,9.016-2.727V19.72h-9.49v4.729h4.227V30.2
		c-3.192,1.066-9.016,1.491-9.016-5.751v-8.52c0-5.069,2.374-6.816,5.005-6.816C60.562,9.112,62.46,10.476,62.46,14.565
		L62.46,14.565z"/>
</g>
</svg>
